<?xml version="1.0" encoding="iso-8859-1"?>
<!-- Generator: Adobe Illustrator 19.0.0, SVG Export Plug-In . SVG Version: 6.00 Build 0)  -->
<svg version="1.1" id="Capa_1" xmlns="http://www.w3.org/2000/svg" xmlns:xlink="http://www.w3.org/1999/xlink" x="0px" y="0px"
	 viewBox="0 0 512 512" style="enable-background:new 0 0 512 512;" xml:space="preserve">
<g>
	<g>
		<path d="M384,472c-20.892,0-32.838-7.049-47.963-15.974c-14.817-8.743-32.598-19.228-60.037-22.779V286.66
			c11.516,6.567,24.822,10.34,39,10.34c23.441,0,44.519-10.273,59-26.542C388.481,286.727,409.559,297,433,297
			c43.561,0,79-35.439,79-79c0-11.046-8.954-20-20-20c-11.046,0-20,8.954-20,20c0,21.505-17.495,39-39,39s-39-17.495-39-39
			c0-1.704-0.236-3.349-0.637-4.928c-5.584-45.985-28.457-89.509-66.404-126.321c44.181,10.497,80.016,31.629,106.977,63.23
			c7.168,8.403,19.792,9.404,28.196,2.235c8.403-7.169,9.403-19.793,2.234-28.196c-21.288-24.953-47.587-44.784-78.167-58.943
			C353.991,50.163,316.991,41.603,276,39.518V20c0-11.046-8.954-20-20-20c-11.046,0-20,8.954-20,20v19.516
			c-41.913,2.131-79.639,11.033-112.361,26.574c-30.78,14.618-57.126,35.031-78.308,60.672
			c-28.125,34.046-39.516,68.242-43.347,82.597C0.726,211.978,0,214.901,0,218c0,0.446,0.026,0.885,0.034,1.329
			c-0.029,0.836-0.011,1.665,0.063,2.484C2.093,263.609,36.718,297,79,297c23.441,0,44.519-10.273,59-26.542
			C152.481,286.727,173.559,297,197,297c14.178,0,27.484-3.773,39-10.34v146.883c-22.545,3.575-39.204,12.762-54.282,21.081
			C164.819,463.948,150.225,472,128,472c-20.892,0-32.838-7.049-47.963-15.974C61.895,445.322,39.317,432,0,432v40
			c28.396,0,42.907,8.562,59.709,18.477C76.808,500.565,96.187,512,128,512c32.527,0,54.052-11.875,73.042-22.354
			C218.204,480.178,233.025,472,256,472c28.396,0,42.907,8.562,59.709,18.477C332.808,500.565,352.187,512,384,512
			c32.527,0,54.052-11.875,73.042-22.354C474.204,480.178,489.025,472,512,472v-40c-33.277,0-55.062,12.02-74.282,22.624
			C420.819,463.948,406.225,472,384,472z M276,95.656c29.455,22.274,71.636,64.185,77.923,124.694
			C352.703,240.764,335.715,257,315,257c-21.505,0-39-17.495-39-39V95.656z M118.638,213.072C118.236,214.651,118,216.296,118,218
			c0,21.505-17.495,39-39,39c-20.326,0-37.061-15.632-38.835-35.505c2.051-8.251,10.957-38.937,36.005-69.258
			c27.151-32.868,63.628-54.761,108.885-65.5C147.1,123.552,124.223,167.081,118.638,213.072z M236,218c0,21.505-17.495,39-39,39
			c-20.723,0-37.716-16.248-38.925-36.674c3.996-38.488,22.697-74.031,55.624-105.662c7.704-7.401,15.35-13.731,22.301-18.986V218z"
			/>
	</g>
</g>
<g>
</g>
<g>
</g>
<g>
</g>
<g>
</g>
<g>
</g>
<g>
</g>
<g>
</g>
<g>
</g>
<g>
</g>
<g>
</g>
<g>
</g>
<g>
</g>
<g>
</g>
<g>
</g>
<g>
</g>
</svg>
